<svg version="1.1" id="Layer_1" xmlns="http://www.w3.org/2000/svg" xmlns:xlink="http://www.w3.org/1999/xlink" x="0px" y="0px"
	 width="100%" viewBox="0 0 190 198" enable-background="new 0 0 190 198" xml:space="preserve">
<path fill="#FEFDFD" opacity="1.000000" stroke="none" 
	d="
M136.000000,0.999999 
	C154.321671,1.000000 172.643326,1.000000 190.982498,1.000000 
	C190.982498,66.946320 190.982498,132.892654 190.982498,198.919495 
	C127.760742,198.919495 64.521347,198.919495 1.140975,198.919495 
	C1.140975,133.000214 1.140975,67.000153 1.140975,1.000000 
	C16.415369,1.000000 31.739025,1.000000 47.320904,1.278853 
	C45.774902,6.705701 43.970676,11.853696 41.997349,17.347061 
	C41.006485,20.729401 40.184723,23.766369 39.209740,27.117416 
	C38.420937,29.954538 37.785351,32.477581 36.979301,35.340866 
	C36.353226,37.399448 35.897617,39.117786 35.277893,41.155388 
	C34.566151,43.613014 34.018520,45.751381 33.305325,48.188663 
	C32.738579,50.317951 32.337402,52.148319 31.700851,54.253628 
	C30.723576,57.351578 29.981670,60.174587 29.099176,63.338932 
	C28.394339,65.789856 27.830088,67.899452 27.126541,70.372353 
	C25.942837,74.807274 24.898426,78.878883 23.601652,83.249863 
	C22.281466,87.511124 22.362801,91.248787 27.467705,91.685005 
	C32.762131,92.137421 38.125271,91.785744 43.523857,91.785744 
	C41.737614,86.757309 40.146843,82.279137 38.530769,77.360466 
	C38.519432,73.985519 38.533394,71.051086 38.710670,67.829041 
	C40.296516,64.712105 41.719051,61.882786 43.447624,58.914886 
	C49.637348,52.920002 57.299389,51.849045 65.449463,50.942162 
	C70.267967,51.290504 74.636612,51.577488 79.296677,51.981499 
	C80.253319,53.018906 80.918549,53.939289 81.323135,55.064919 
	C80.041451,55.538834 79.020416,55.807503 77.583885,55.935440 
	C73.446121,55.560509 69.723846,55.326309 65.571121,55.026161 
	C56.887486,55.684635 48.634918,56.410339 43.916309,65.284538 
	C43.180775,67.377403 42.674866,69.189262 42.099617,71.369698 
	C42.165478,73.199242 42.300667,74.660210 42.444401,76.513596 
	C42.992275,78.604637 43.531609,80.303253 44.078053,82.370560 
	C45.344837,85.733192 46.604504,88.727127 47.880707,91.760368 
	C48.671162,91.760368 49.795162,92.114258 50.275936,91.707634 
	C58.327755,84.897629 66.299232,77.992638 74.615707,71.026505 
	C88.251312,62.566334 102.174255,55.662476 117.999107,53.436028 
	C118.071022,58.288368 114.107338,57.062881 111.889740,57.714622 
	C97.309471,61.999718 83.973770,68.607925 71.707176,78.113205 
	C66.874847,82.352936 62.365013,86.490822 57.652512,90.762032 
	C57.630268,91.136887 57.810688,91.378410 58.422241,91.711281 
	C60.904671,91.741455 62.955967,91.680283 65.466354,91.709862 
	C71.614616,91.741753 77.303787,91.682907 83.446014,91.715622 
	C86.727303,91.820518 89.670036,92.341995 92.358780,91.736183 
	C97.216904,90.641579 101.759430,90.633873 106.734818,91.639481 
	C112.659447,92.836945 114.263306,91.141983 115.883995,85.212219 
	C116.713333,82.177856 117.362289,79.094200 118.319992,75.757286 
	C119.097084,73.131203 119.646942,70.780640 120.443100,68.117493 
	C121.362877,65.248825 122.036346,62.692753 122.856277,59.862312 
	C122.393829,56.940208 121.784920,54.292469 121.125092,51.308678 
	C119.757088,48.867496 118.440010,46.762371 116.964493,44.412025 
	C116.168289,43.445099 115.530525,42.723392 114.895172,41.672043 
	C113.319717,39.873623 111.741829,38.404839 110.004639,36.665245 
	C107.257545,34.025181 106.400772,36.698471 104.737869,38.114925 
	C102.595688,38.817822 100.798790,39.435024 98.662193,39.951538 
	C96.269402,38.785435 94.216301,37.720016 92.095810,36.343838 
	C91.441383,34.684811 90.854355,33.336548 90.329979,31.619701 
	C90.697868,29.537962 91.003105,27.824810 91.580872,25.907078 
	C94.948479,21.343252 99.212189,21.127365 104.073769,22.563854 
	C105.763519,24.697285 107.250671,26.579750 108.709747,28.809700 
	C110.716667,31.132900 112.751656,33.108620 114.936806,35.390495 
	C118.595062,40.328800 122.103149,44.960941 125.858681,49.919811 
	C127.627831,43.053436 129.309280,36.527409 131.193512,29.688210 
	C132.293777,25.639353 133.191284,21.903671 134.377777,17.932636 
	C135.482224,14.477997 136.297684,11.258708 137.343048,7.780684 
	C137.048645,5.347966 136.524323,3.173983 136.000000,0.999999 
M72.207031,129.411438 
	C72.055656,130.588806 71.368118,132.101135 71.854675,132.879959 
	C73.245735,135.106644 75.113640,137.035431 76.878990,139.788498 
	C77.978394,141.857315 79.077797,143.926132 80.302284,146.629440 
	C81.736511,148.474243 83.170738,150.319046 84.885262,152.796906 
	C93.419724,161.727020 101.424728,163.358307 109.415665,157.335571 
	C112.273842,155.181351 114.339256,152.003983 116.969452,149.507401 
	C118.443840,148.107925 120.333443,147.145874 122.202484,146.747192 
	C121.098778,149.150894 119.995064,151.554596 118.302971,154.261917 
	C112.013649,162.040207 104.157776,165.945053 93.421852,163.707367 
	C91.414299,162.755630 89.406746,161.803894 87.034714,160.271957 
	C84.768478,158.144852 82.502235,156.017746 80.020798,153.225586 
	C78.281853,150.490814 76.542908,147.756058 74.686844,144.330704 
	C73.319313,141.339417 71.951782,138.348145 70.408714,134.972900 
	C69.488602,138.921005 68.670952,142.429474 67.406105,146.524857 
	C66.258202,151.012192 65.110298,155.499512 63.506535,160.560989 
	C62.638481,164.028931 61.770424,167.496857 60.417019,171.517593 
	C59.802620,173.963058 59.188221,176.408539 58.174385,179.442749 
	C57.779015,181.295502 57.383644,183.148239 56.534523,185.597260 
	C55.535873,189.082031 53.018066,192.771744 58.585781,195.890549 
	C63.058197,195.871017 67.530617,195.851471 72.930031,195.976364 
	C95.511192,195.983429 118.093277,195.885345 140.672729,196.085526 
	C145.235092,196.125946 147.210632,194.303345 148.261230,190.115860 
	C150.783112,180.063980 153.605774,170.087585 156.775055,159.500351 
	C157.258438,157.359955 157.741821,155.219559 158.717209,152.515808 
	C159.115250,150.011215 159.513290,147.506638 160.215927,144.271164 
	C160.852631,142.603577 161.489334,140.935989 162.135605,139.243378 
	C158.791107,139.243378 155.898102,139.243378 152.376251,138.855698 
	C151.623932,138.626266 150.637939,137.967972 150.154221,138.231522 
	C142.537781,142.381271 134.246826,142.023804 125.266525,141.719894 
	C120.513176,140.890930 115.759827,140.061966 110.304184,138.939911 
	C106.901711,137.856705 103.499237,136.773514 99.610909,135.205414 
	C96.764893,134.071701 93.918877,132.937973 90.654068,131.257797 
	C87.123917,129.448578 83.593758,127.639351 79.717590,125.270042 
	C77.979233,124.252144 76.240875,123.234253 74.180176,122.027618 
	C73.547256,124.728050 73.065048,126.785431 72.207031,129.411438 
M51.753632,128.325211 
	C51.641476,130.151138 51.529324,131.977066 51.050865,134.357574 
	C48.755161,139.119995 44.670132,139.833862 39.349144,138.952850 
	C37.937328,137.890167 36.525513,136.827484 34.941681,135.039139 
	C34.495743,133.359100 34.049801,131.679062 33.881187,129.269104 
	C34.573669,127.616447 35.294121,125.974808 35.950970,124.308105 
	C36.643333,122.551277 37.274971,120.770500 38.159073,118.224625 
	C39.124275,114.527420 40.089478,110.830223 41.498096,106.806091 
	C41.322674,106.328758 41.147255,105.851433 40.244045,105.207054 
	C39.503895,105.262436 38.763741,105.317818 37.101799,105.179939 
	C32.320713,105.167732 27.536999,105.248718 22.759356,105.114204 
	C18.844894,105.003990 16.518227,106.651474 15.744716,110.528366 
	C15.391169,112.300369 14.868656,114.038651 14.108679,116.437698 
	C13.098760,120.292702 12.088840,124.147697 10.714608,128.653488 
	C9.875421,131.770493 9.036233,134.887482 7.896580,138.700943 
	C7.171069,141.587677 6.445559,144.474426 5.228147,147.922485 
	C3.815080,154.132584 4.513502,155.442505 10.714062,156.776840 
	C16.808552,156.721710 22.903044,156.666580 29.918915,156.794647 
	C34.213482,156.807785 38.508045,156.829407 42.802620,156.832474 
	C56.556660,156.842300 56.556660,156.839645 59.466553,142.394867 
	C60.470932,138.629990 61.475307,134.865128 62.857986,130.509064 
	C63.627342,127.358467 64.396698,124.207878 65.631660,120.578049 
	C66.948486,117.672729 66.529503,115.423752 63.433334,113.875648 
	C62.253384,113.285667 61.339024,112.164520 59.946400,110.769951 
	C59.249454,110.056694 58.555416,109.340576 57.855099,108.630646 
	C51.623425,102.313484 46.405067,103.422607 43.701729,111.758224 
	C42.945412,114.090302 42.703461,116.589195 42.064041,119.758430 
	C45.285564,122.354561 48.507088,124.950691 51.753632,128.325211 
M147.927383,58.258396 
	C143.158920,56.969372 138.390457,55.680344 133.258331,54.293011 
	C132.341858,58.668533 131.678650,61.834949 130.860748,65.800880 
	C131.347504,68.202721 131.834244,70.604568 132.290726,73.737411 
	C132.677795,75.861145 133.064880,77.984879 133.416412,80.999680 
	C133.687119,83.664192 133.957809,86.328697 134.112259,89.814545 
	C134.224167,90.293381 134.317001,91.185272 134.450729,91.191452 
	C139.528214,91.425842 144.947601,92.694984 149.555740,91.298904 
	C152.076828,90.535118 153.227325,85.247314 155.491348,81.364029 
	C155.936600,78.244179 156.381866,75.124329 156.930161,71.255020 
	C155.971085,68.793121 155.011993,66.331215 153.894318,63.232498 
	C152.061996,61.770874 150.229675,60.309246 147.927383,58.258396 
M157.316437,87.167290 
	C156.688705,88.602592 156.060974,90.037895 155.264801,91.858315 
	C160.849060,91.858315 165.789169,91.835014 170.728928,91.866287 
	C174.170990,91.888084 176.358566,90.392220 177.117355,86.936844 
	C177.541183,85.006866 178.081512,83.102478 178.891479,80.560936 
	C179.593704,77.707214 180.295929,74.853493 181.407089,71.384750 
	C182.232300,68.256851 183.057510,65.128952 184.220169,61.329224 
	C185.125610,57.886501 186.031052,54.443779 187.311249,50.384544 
	C189.404465,43.353718 188.782654,41.847420 182.369186,40.199905 
	C174.254654,40.255329 166.140106,40.310757 157.103394,40.173485 
	C153.440262,40.159801 149.777115,40.135445 146.113983,40.134556 
	C137.281357,40.132416 135.725372,41.645466 135.185532,50.983746 
	C137.447327,51.256176 139.730362,51.531162 142.715775,52.067287 
	C145.859024,53.357269 149.002258,54.647255 152.514923,56.477585 
	C154.641495,58.732811 156.768066,60.988033 158.971756,63.949730 
	C159.646194,65.966576 160.320633,67.983421 160.887192,70.875198 
	C160.792465,73.215279 160.697754,75.555367 160.232849,78.485359 
	C159.443893,81.234901 158.654938,83.984444 157.316437,87.167290 
M127.757744,123.485107 
	C128.129242,120.990288 128.500748,118.495468 129.134811,115.252449 
	C129.358307,113.168579 129.581802,111.084709 130.002167,108.151550 
	C129.160507,107.158485 128.365036,105.361298 127.469315,105.309860 
	C123.327713,105.072075 119.158234,105.319626 114.079910,105.203850 
	C105.399498,105.257462 96.719093,105.311081 87.201355,105.165047 
	C82.784035,105.034935 78.154465,104.552155 77.239319,111.536644 
	C75.246094,118.695312 75.246094,118.695312 82.416641,122.537445 
	C84.594398,123.733513 86.772163,124.929581 89.260750,126.741722 
	C91.371674,127.549416 93.482597,128.357101 96.084496,129.724121 
	C99.658852,131.018799 103.233200,132.313492 107.423157,133.934479 
	C110.647011,134.779190 113.870857,135.623901 117.856926,136.847153 
	C127.980194,138.552368 138.063034,139.706421 146.753967,135.484940 
	C147.449112,131.379700 147.976273,128.266449 149.033615,124.755013 
	C151.970795,123.667809 155.060318,121.439285 157.803528,121.805420 
	C160.709091,122.193237 163.285355,125.048157 165.902908,126.758537 
	C167.071930,122.638130 168.568497,118.092056 169.572128,113.439629 
	C169.934860,111.758049 169.116058,109.821587 168.876373,107.224869 
	C167.322556,106.541290 165.779984,105.300728 164.212997,105.269073 
	C156.824738,105.119888 149.429794,105.301910 141.167267,105.164635 
	C138.912003,105.164635 136.656723,105.164635 134.003006,105.164635 
	C134.003006,107.119041 134.003006,108.561371 133.738571,110.752640 
	C133.201721,114.502098 132.664886,118.251556 131.871384,122.711739 
	C131.299988,125.142166 130.728607,127.572594 129.853241,130.718674 
	C128.950653,132.801697 128.139572,135.183792 125.847374,131.194031 
	C126.330399,128.830872 126.813423,126.467728 127.757744,123.485107 
M151.452438,128.192703 
	C150.290192,131.329086 151.206024,134.048004 154.186188,135.108063 
	C155.819427,135.689026 158.705032,135.185455 159.851440,134.017776 
	C161.012268,132.835449 161.424194,130.032425 160.928757,128.290665 
	C159.841827,124.469490 155.836777,124.274361 151.452438,128.192703 
M45.532879,125.935898 
	C42.071095,124.244392 39.035809,125.075562 38.094055,128.684219 
	C37.621128,130.496384 38.809540,133.668442 40.314655,134.782104 
	C41.554909,135.699783 44.929989,135.204086 46.365047,134.073318 
	C49.158760,131.871994 48.532902,128.884888 45.532879,125.935898 
M96.113754,26.623455 
	C95.848862,29.017744 94.981880,31.575836 95.570107,33.738026 
	C95.869461,34.838371 98.928581,36.003593 100.479668,35.719112 
	C102.041870,35.432594 103.889542,33.613125 104.477623,32.040966 
	C104.986862,30.679562 104.413170,27.757702 103.420624,27.237265 
	C101.520836,26.241112 98.983391,26.461037 96.113754,26.623455 
M129.972168,84.633904 
	C129.504456,81.743813 129.036743,78.853714 128.569031,75.963623 
	C124.002907,85.700821 123.034439,91.634041 130.015671,91.368301 
	C130.015671,89.426628 130.015671,87.476059 129.972168,84.633904 
M62.857979,105.135460 
	C62.151546,105.194511 61.445118,105.253563 59.578651,105.409584 
	C62.767441,108.095024 65.100281,110.059624 67.870872,112.392876 
	C68.653755,107.855049 67.032799,105.884483 62.857979,105.135460 
z"/>
<path fill="#D9313C" opacity="1.000000" stroke="none" 
	d="
M33.470894,47.889748 
	C34.018520,45.751381 34.566151,43.613014 35.716953,41.196793 
	C38.709900,40.356430 41.226086,40.102829 43.470230,39.184464 
	C71.186615,27.842194 98.877113,16.436039 126.517403,4.909951 
	C128.253235,4.186106 129.516754,2.329570 131.000000,1.000000 
	C132.388885,1.000000 133.777786,1.000000 135.583344,0.999999 
	C136.524323,3.173983 137.048645,5.347966 136.937897,7.769870 
	C126.122925,12.053242 115.931770,16.060995 105.784828,20.177717 
	C104.989159,20.500528 104.501816,21.583313 103.871170,22.312889 
	C99.212189,21.127365 94.948479,21.343252 91.162949,25.876978 
	C89.181450,26.277109 87.803513,26.285923 86.613129,26.762838 
	C77.366791,30.467247 68.180641,34.322166 58.928185,38.010910 
	C50.473427,41.381630 41.959019,44.602718 33.470894,47.889748 
z"/>
<path fill="#E63138" opacity="1.000000" stroke="none" 
	d="
M37.149765,35.000622 
	C37.785351,32.477581 38.420937,29.954538 39.636520,27.164806 
	C40.548374,26.906137 40.923573,27.021208 41.205906,26.906906 
	C60.224907,19.207245 79.245560,11.511281 98.217796,3.697789 
	C99.042358,3.358201 99.416206,1.924199 100.000000,1.000001 
	C105.688042,1.000000 111.376083,1.000000 117.478455,1.346648 
	C116.141144,2.849586 114.521347,4.323907 112.617531,5.113054 
	C93.226654,13.150747 73.817024,21.145058 54.348133,28.991465 
	C48.721920,31.258957 42.888302,33.011826 37.149765,35.000622 
z"/>
<path fill="#DF313A" opacity="1.000000" stroke="none" 
	d="
M36.979301,35.340866 
	C42.888302,33.011826 48.721920,31.258957 54.348133,28.991465 
	C73.817024,21.145058 93.226654,13.150747 112.617531,5.113054 
	C114.521347,4.323907 116.141144,2.849586 117.946388,1.346648 
	C122.024544,1.000000 126.049095,1.000000 130.536819,1.000000 
	C129.516754,2.329570 128.253235,4.186106 126.517403,4.909951 
	C98.877113,16.436039 71.186615,27.842194 43.470230,39.184464 
	C41.226086,40.102829 38.709900,40.356430 35.881065,40.877533 
	C35.897617,39.117786 36.353226,37.399448 36.979301,35.340866 
z"/>
<path fill="#F03135" opacity="1.000000" stroke="none" 
	d="
M99.531464,1.000001 
	C99.416206,1.924199 99.042358,3.358201 98.217796,3.697789 
	C79.245560,11.511281 60.224907,19.207245 41.205906,26.906906 
	C40.923573,27.021208 40.548374,26.906137 39.789742,26.850725 
	C40.184723,23.766369 41.006485,20.729401 42.373875,17.338223 
	C52.131729,13.392215 61.399647,9.934111 70.524643,6.132911 
	C73.539360,4.877074 76.185394,2.736203 79.000000,0.999999 
	C85.687645,1.000000 92.375290,1.000000 99.531464,1.000001 
z"/>
<path fill="#FB3233" opacity="1.000000" stroke="none" 
	d="
M78.531342,0.999999 
	C76.185394,2.736203 73.539360,4.877074 70.524643,6.132911 
	C61.399647,9.934111 52.131729,13.392215 42.542976,16.992851 
	C43.970676,11.853696 45.774902,6.705701 47.789562,1.278853 
	C58.020893,1.000000 68.041786,1.000000 78.531342,0.999999 
z"/>
<path fill="#162B6F" opacity="1.000000" stroke="none" 
	d="
M156.307053,160.080719 
	C153.605774,170.087585 150.783112,180.063980 148.261230,190.115860 
	C147.210632,194.303345 145.235092,196.125946 140.672729,196.085526 
	C118.093277,195.885345 95.511192,195.983429 72.516922,195.555145 
	C73.085930,194.374695 73.960060,193.357498 75.066185,192.894424 
	C95.342644,184.405823 115.618744,175.914856 135.961258,167.586411 
	C142.646881,164.849258 149.519791,162.569580 156.307053,160.080719 
z"/>
<path fill="#242B6B" opacity="1.000000" stroke="none" 
	d="
M57.866211,195.467682 
	C53.018066,192.771744 55.535873,189.082031 57.162872,185.298264 
	C59.870312,184.487320 62.054871,184.231323 64.012512,183.424637 
	C89.615562,172.874466 115.157501,162.175491 140.786377,151.688843 
	C147.028336,149.134811 153.529388,147.214005 159.911316,145.002045 
	C159.513290,147.506638 159.115250,150.011215 158.073700,152.780136 
	C156.473221,153.277603 155.468506,153.393478 154.566223,153.760910 
	C123.820740,166.281128 93.071762,178.793167 62.382076,191.448944 
	C60.623444,192.174164 59.360077,194.100403 57.866211,195.467682 
z"/>
<path fill="#1E2B6D" opacity="1.000000" stroke="none" 
	d="
M58.225994,195.679108 
	C59.360077,194.100403 60.623444,192.174164 62.382076,191.448944 
	C93.071762,178.793167 123.820740,166.281128 154.566223,153.760910 
	C155.468506,153.393478 156.473221,153.277603 157.827698,153.061798 
	C157.741821,155.219559 157.258438,157.359955 156.541046,159.790527 
	C149.519791,162.569580 142.646881,164.849258 135.961258,167.586411 
	C115.618744,175.914856 95.342644,184.405823 75.066185,192.894424 
	C73.960060,193.357498 73.085930,194.374695 72.053421,195.482941 
	C67.530617,195.851471 63.058197,195.871017 58.225994,195.679108 
z"/>
<path fill="#2D2C6A" opacity="1.000000" stroke="none" 
	d="
M160.063629,144.636597 
	C153.529388,147.214005 147.028336,149.134811 140.786377,151.688843 
	C115.157501,162.175491 89.615562,172.874466 64.012512,183.424637 
	C62.054871,184.231323 59.870312,184.487320 57.389748,185.000122 
	C57.383644,183.148239 57.779015,181.295502 58.803448,179.186493 
	C61.049099,178.639236 62.770191,178.610229 64.265038,178.014008 
	C72.891548,174.573181 81.495506,171.070206 90.026848,167.401627 
	C91.537323,166.752106 92.669647,165.223190 93.976585,164.100357 
	C104.157776,165.945053 112.013649,162.040207 119.004715,154.121429 
	C120.368546,153.951553 121.101906,154.099533 121.682091,153.866394 
	C131.499161,149.921066 141.314545,145.969666 151.069412,141.874588 
	C151.930984,141.512894 152.369873,140.144302 153.005096,139.243378 
	C155.898102,139.243378 158.791107,139.243378 162.135605,139.243378 
	C161.489334,140.935989 160.852631,142.603577 160.063629,144.636597 
z"/>
<path fill="#CB3140" opacity="1.000000" stroke="none" 
	d="
M29.239765,62.997597 
	C29.981670,60.174587 30.723576,57.351578 32.113575,54.259739 
	C40.451218,51.190197 48.183914,48.501598 55.820217,45.562542 
	C67.337929,41.129608 78.788322,36.521778 90.267326,31.988287 
	C90.854355,33.336548 91.441383,34.684811 91.936745,36.685432 
	C90.941383,38.028347 90.133148,38.946297 89.118385,39.372257 
	C82.881645,41.990231 76.549110,44.385265 70.359070,47.106148 
	C68.398354,47.967995 66.776520,49.600807 64.999603,50.880802 
	C57.299389,51.849045 49.637348,52.920002 43.051025,58.904961 
	C37.978848,60.354942 33.609306,61.676270 29.239765,62.997597 
z"/>
<path fill="#402E66" opacity="1.000000" stroke="none" 
	d="
M122.035965,145.986725 
	C120.333443,147.145874 118.443840,148.107925 116.969452,149.507401 
	C114.339256,152.003983 112.273842,155.181351 109.415665,157.335571 
	C101.424728,163.358307 93.419724,161.727020 85.100266,152.337250 
	C90.794151,149.563736 96.356094,147.424423 101.720970,144.871033 
	C104.973770,143.322876 107.921616,141.134003 111.006477,139.233002 
	C115.759827,140.061966 120.513176,140.890930 125.599442,142.203094 
	C124.633560,143.786423 123.334763,144.886581 122.035965,145.986725 
z"/>
<path fill="#953050" opacity="1.000000" stroke="none" 
	d="
M120.196808,68.430084 
	C119.646942,70.780640 119.097084,73.131203 117.926453,75.753860 
	C108.983452,79.299637 100.588982,82.404938 92.374199,85.929085 
	C89.045380,87.357147 86.108299,89.698372 82.992966,91.624062 
	C77.303787,91.682907 71.614616,91.741753 65.475281,91.355209 
	C66.105934,89.873726 67.006416,88.410538 68.294968,87.866508 
	C84.147209,81.173676 100.040413,74.576393 115.982994,68.102066 
	C117.150635,67.627884 118.781372,68.294067 120.196808,68.430084 
z"/>
<path fill="#9C314E" opacity="1.000000" stroke="none" 
	d="
M120.443108,68.117493 
	C118.781372,68.294067 117.150635,67.627884 115.982994,68.102066 
	C100.040413,74.576393 84.147209,81.173676 68.294968,87.866508 
	C67.006416,88.410538 66.105934,89.873726 65.016197,91.264465 
	C62.955967,91.680283 60.904671,91.741455 58.394821,91.462585 
	C57.909237,90.957932 57.882206,90.793320 57.855175,90.628708 
	C62.365013,86.490822 66.874847,82.352936 72.118576,78.111298 
	C75.095932,77.557884 77.473358,77.441360 79.560158,76.602158 
	C89.794868,72.486282 99.907265,68.064796 110.159332,63.994202 
	C114.214134,62.384239 118.518875,61.403770 122.709816,60.136681 
	C122.036346,62.692753 121.362877,65.248825 120.443108,68.117493 
z"/>
<path fill="#622E5B" opacity="1.000000" stroke="none" 
	d="
M40.006584,139.238754 
	C44.670132,139.833862 48.755161,139.119995 51.656273,134.128601 
	C55.667679,132.966492 59.073681,132.033371 62.479683,131.100250 
	C61.475307,134.865128 60.470932,138.629990 58.836964,142.697388 
	C57.218910,143.037445 56.121944,142.806030 55.258835,143.154266 
	C47.023785,146.476791 38.799072,149.830551 30.664528,153.388290 
	C29.803640,153.764801 29.538860,155.504288 28.997536,156.611450 
	C22.903044,156.666580 16.808552,156.721710 10.350370,156.283249 
	C10.967317,154.824387 11.778358,153.470016 12.955995,152.956711 
	C20.849937,149.515854 28.863272,146.346924 36.729027,142.845276 
	C38.087498,142.240509 38.927238,140.470520 40.006584,139.238754 
z"/>
<path fill="#AF3249" opacity="1.000000" stroke="none" 
	d="
M117.122940,44.657249 
	C118.440010,46.762371 119.757088,48.867496 120.917885,51.628922 
	C119.802277,52.538174 118.842949,52.791130 117.883621,53.044083 
	C102.174255,55.662476 88.251312,62.566334 74.198097,70.997101 
	C71.876274,71.407890 70.223740,71.573013 68.734627,72.155754 
	C60.491413,75.381622 52.287991,78.709160 44.070938,82.001869 
	C43.531609,80.303253 42.992275,78.604637 42.886906,76.484573 
	C45.713005,75.451424 48.215267,75.109673 50.480087,74.185829 
	C71.039543,65.799385 91.577736,57.359470 112.054634,48.774155 
	C113.980835,47.966560 115.444511,46.055820 117.122940,44.657249 
z"/>
<path fill="#B32F45" opacity="1.000000" stroke="none" 
	d="
M116.964493,44.412025 
	C115.444511,46.055820 113.980835,47.966560 112.054634,48.774155 
	C91.577736,57.359470 71.039543,65.799385 50.480087,74.185829 
	C48.215267,75.109673 45.713005,75.451424 42.878361,76.092148 
	C42.300667,74.660210 42.165478,73.199242 42.498840,71.369255 
	C43.962990,70.951424 45.064785,71.165848 45.937943,70.813560 
	C55.934635,66.780273 65.911446,62.696083 75.842506,58.504482 
	C76.742729,58.124527 77.288826,56.905533 77.999374,56.076172 
	C79.020416,55.807503 80.041451,55.538834 81.724167,55.077087 
	C93.221474,50.589905 104.057114,46.295799 114.892754,42.001690 
	C115.530525,42.723392 116.168289,43.445099 116.964493,44.412025 
z"/>
<path fill="#4D2F63" opacity="1.000000" stroke="none" 
	d="
M130.157227,130.003021 
	C130.728607,127.572594 131.299988,125.142166 132.388855,122.355286 
	C134.330795,121.639404 135.819550,121.439438 137.169556,120.895287 
	C147.740189,116.634552 158.284195,112.307823 168.836426,108.001434 
	C169.116058,109.821587 169.934860,111.758049 169.572128,113.439629 
	C168.568497,118.092056 167.071930,122.638130 165.902908,126.758537 
	C163.285355,125.048157 160.709091,122.193237 157.803528,121.805420 
	C155.060318,121.439285 151.970795,123.667809 148.347061,124.918503 
	C145.749939,125.574364 143.828003,126.026901 141.931168,126.567459 
	C137.999451,127.687881 134.081085,128.855057 130.157227,130.003021 
z"/>
<path fill="#D3313E" opacity="1.000000" stroke="none" 
	d="
M90.329979,31.619701 
	C78.788322,36.521778 67.337929,41.129608 55.820217,45.562542 
	C48.183914,48.501598 40.451218,51.190197 32.348946,53.984798 
	C32.337402,52.148319 32.738579,50.317951 33.305328,48.188667 
	C41.959019,44.602718 50.473427,41.381630 58.928185,38.010910 
	C68.180641,34.322166 77.366791,30.467247 86.613129,26.762838 
	C87.803513,26.285923 89.181450,26.277109 90.890427,26.081554 
	C91.003105,27.824810 90.697868,29.537962 90.329979,31.619701 
z"/>
<path fill="#6E2D58" opacity="1.000000" stroke="none" 
	d="
M88.038681,105.364700 
	C96.719093,105.311081 105.399498,105.257462 114.527458,105.644913 
	C113.213890,107.375137 111.610756,109.013435 109.664734,109.893959 
	C100.502487,114.039658 91.246201,117.977539 82.023460,121.989563 
	C75.246094,118.695312 75.246094,118.695312 77.851868,111.243851 
	C82.225441,110.065163 86.397064,109.882980 88.038681,105.364700 
z"/>
<path fill="#9C314E" opacity="1.000000" stroke="none" 
	d="
M152.145508,55.937233 
	C149.002258,54.647255 145.859024,53.357269 142.370667,51.577423 
	C143.885635,49.713497 145.690735,48.256115 147.617920,46.983673 
	C151.048187,44.718830 154.552322,42.565910 158.025574,40.366180 
	C166.140106,40.310757 174.254654,40.255329 182.707825,40.685989 
	C180.646515,42.752171 178.403900,44.681580 175.817108,45.846992 
	C167.998276,49.369553 160.045853,52.595608 152.145508,55.937233 
z"/>
<path fill="#552D5F" opacity="1.000000" stroke="none" 
	d="
M168.856400,107.613159 
	C158.284195,112.307823 147.740189,116.634552 137.169556,120.895287 
	C135.819550,121.439438 134.330795,121.639404 132.517181,121.999924 
	C132.664886,118.251556 133.201721,114.502098 134.242523,110.367233 
	C137.176712,108.443146 139.606979,106.904472 142.037231,105.365799 
	C149.429794,105.301910 156.824738,105.119888 164.212997,105.269073 
	C165.779984,105.300728 167.322556,106.541290 168.856400,107.613159 
z"/>
<path fill="#913050" opacity="1.000000" stroke="none" 
	d="
M152.330215,56.207409 
	C160.045853,52.595608 167.998276,49.369553 175.817108,45.846992 
	C178.403900,44.681580 180.646515,42.752171 183.116241,40.781746 
	C188.782654,41.847420 189.404465,43.353718 186.730652,50.693047 
	C177.427826,54.373714 168.694794,57.718750 160.008636,61.181355 
	C159.451813,61.403320 159.257553,62.534847 158.894638,63.243256 
	C156.768066,60.988033 154.641495,58.732811 152.330215,56.207409 
z"/>
<path fill="#892F52" opacity="1.000000" stroke="none" 
	d="
M41.054680,107.133018 
	C40.089478,110.830223 39.124275,114.527420 37.652863,118.612961 
	C35.569191,119.425323 33.954659,119.745201 32.420597,120.291183 
	C25.294502,122.827400 18.190704,125.426262 11.078922,128.002701 
	C12.088840,124.147697 13.098760,120.292702 14.690845,116.166153 
	C20.204889,114.090446 25.233036,112.505630 30.032314,110.399330 
	C32.882401,109.148499 35.371941,107.076164 38.023590,105.373192 
	C38.763741,105.317818 39.503895,105.262436 40.608482,105.584198 
	C41.000172,106.351906 41.027424,106.742462 41.054680,107.133018 
z"/>
<path fill="#8C3355" opacity="1.000000" stroke="none" 
	d="
M83.446014,91.715622 
	C86.108299,89.698372 89.045380,87.357147 92.374199,85.929085 
	C100.588982,82.404938 108.983452,79.299637 117.699226,76.029388 
	C117.362289,79.094200 116.713333,82.177856 115.883995,85.212219 
	C114.263306,91.141983 112.659447,92.836945 106.734818,91.639481 
	C101.759430,90.633873 97.216904,90.641579 92.358780,91.736183 
	C89.670036,92.341995 86.727303,91.820518 83.446014,91.715622 
z"/>
<path fill="#662D5A" opacity="1.000000" stroke="none" 
	d="
M82.220047,122.263504 
	C91.246201,117.977539 100.502487,114.039658 109.664734,109.893959 
	C111.610756,109.013435 113.213890,107.375137 114.986877,105.739616 
	C119.158234,105.319626 123.327713,105.072075 127.469315,105.309860 
	C128.365036,105.361298 129.160507,107.158485 129.518677,108.577118 
	C127.767937,109.300758 126.433838,109.435555 125.243942,109.922646 
	C115.330498,113.980713 105.416969,118.041359 95.568321,122.252869 
	C93.236549,123.249985 91.149529,124.819458 88.949928,126.125641 
	C86.772163,124.929581 84.594398,123.733513 82.220047,122.263504 
z"/>
<path fill="#A4344F" opacity="1.000000" stroke="none" 
	d="
M117.999107,53.436028 
	C118.842949,52.791130 119.802277,52.538174 120.968811,51.964973 
	C121.784920,54.292469 122.393829,56.940208 122.856277,59.862312 
	C118.518875,61.403770 114.214134,62.384239 110.159332,63.994202 
	C99.907265,68.064796 89.794868,72.486282 79.560158,76.602158 
	C77.473358,77.441360 75.095932,77.557884 72.441071,78.009445 
	C83.973770,68.607925 97.309471,61.999718 111.889740,57.714622 
	C114.107338,57.062881 118.071022,58.288368 117.999107,53.436028 
z"/>
<path fill="#5F2D5C" opacity="1.000000" stroke="none" 
	d="
M89.105339,126.433685 
	C91.149529,124.819458 93.236549,123.249985 95.568321,122.252869 
	C105.416969,118.041359 115.330498,113.980713 125.243942,109.922646 
	C126.433838,109.435555 127.767937,109.300758 129.420258,109.001755 
	C129.581802,111.084709 129.358307,113.168579 128.624298,115.634178 
	C117.273697,120.398872 106.433609,124.781837 95.593521,129.164795 
	C93.482597,128.357101 91.371674,127.549416 89.105339,126.433685 
z"/>
<path fill="#D3313E" opacity="1.000000" stroke="none" 
	d="
M104.073776,22.563854 
	C104.501816,21.583313 104.989159,20.500528 105.784828,20.177717 
	C115.931770,16.060995 126.122925,12.053242 136.707993,8.028605 
	C136.297684,11.258708 135.482224,14.477997 134.175049,17.657581 
	C129.196106,19.102579 124.582016,20.293167 120.258781,22.158014 
	C116.256668,23.884340 112.565765,26.332132 108.737823,28.462212 
	C107.250671,26.579750 105.763519,24.697285 104.073776,22.563854 
z"/>
<path fill="#7E2F55" opacity="1.000000" stroke="none" 
	d="
M10.896767,128.328094 
	C18.190704,125.426262 25.294502,122.827400 32.420597,120.291183 
	C33.954659,119.745201 35.569191,119.425323 37.539894,119.000748 
	C37.274971,120.770500 36.643333,122.551277 35.950970,124.308105 
	C35.294121,125.974808 34.573669,127.616447 33.371124,129.637421 
	C31.450159,130.392410 30.018772,130.717209 28.631811,131.176239 
	C21.813745,133.432770 15.007482,135.724930 8.197046,138.004486 
	C9.036233,134.887482 9.875421,131.770493 10.896767,128.328094 
z"/>
<path fill="#862F53" opacity="1.000000" stroke="none" 
	d="
M158.933197,63.596493 
	C159.257553,62.534847 159.451813,61.403320 160.008636,61.181355 
	C168.694794,57.718750 177.427826,54.373714 186.543274,51.001305 
	C186.031052,54.443779 185.125610,57.886501 183.661499,61.665573 
	C181.688217,62.355312 180.222473,62.573368 178.867859,63.085438 
	C172.892792,65.344139 166.949722,67.687546 160.995071,70.000267 
	C160.320633,67.983421 159.646194,65.966576 158.933197,63.596493 
z"/>
<path fill="#352D69" opacity="1.000000" stroke="none" 
	d="
M93.699219,163.903870 
	C92.669647,165.223190 91.537323,166.752106 90.026848,167.401627 
	C81.495506,171.070206 72.891548,174.573181 64.265038,178.014008 
	C62.770191,178.610229 61.049099,178.639236 59.003166,178.892120 
	C59.188221,176.408539 59.802620,173.963058 61.038231,171.214111 
	C70.239357,167.557816 78.819283,164.204987 87.399200,160.852142 
	C89.406746,161.803894 91.414299,162.755630 93.699219,163.903870 
z"/>
<path fill="#C33345" opacity="1.000000" stroke="none" 
	d="
M108.709747,28.809696 
	C112.565765,26.332132 116.256668,23.884340 120.258781,22.158014 
	C124.582016,20.293167 129.196106,19.102579 133.886078,17.892933 
	C133.191284,21.903671 132.293777,25.639353 130.799072,29.688828 
	C128.476440,30.497858 126.729622,30.929619 125.030037,31.501682 
	C121.601990,32.655529 118.199608,33.885666 114.786644,35.084335 
	C112.751656,33.108620 110.716667,31.132900 108.709747,28.809696 
z"/>
<path fill="#732E57" opacity="1.000000" stroke="none" 
	d="
M8.046814,138.352722 
	C15.007482,135.724930 21.813745,133.432770 28.631811,131.176239 
	C30.018772,130.717209 31.450159,130.392410 33.232464,130.002380 
	C34.049801,131.679062 34.495743,133.359100 34.871552,135.729462 
	C25.559631,140.487610 16.322649,144.566635 7.047912,148.557922 
	C6.819296,148.656296 6.172049,147.781860 5.720050,147.361160 
	C6.445559,144.474426 7.171069,141.587677 8.046814,138.352722 
z"/>
<path fill="#572D5F" opacity="1.000000" stroke="none" 
	d="
M29.458225,156.703049 
	C29.538860,155.504288 29.803640,153.764801 30.664528,153.388290 
	C38.799072,149.830551 47.023785,146.476791 55.258835,143.154266 
	C56.121944,142.806030 57.218910,143.037445 58.617832,142.999664 
	C56.556660,156.839645 56.556660,156.842300 42.802620,156.832474 
	C38.508045,156.829407 34.213482,156.807785 29.458225,156.703049 
z"/>
<path fill="#463066" opacity="1.000000" stroke="none" 
	d="
M130.005234,130.360840 
	C134.081085,128.855057 137.999451,127.687881 141.931168,126.567459 
	C143.828003,126.026901 145.749939,125.574364 148.081970,125.117599 
	C147.976273,128.266449 147.449112,131.379700 146.753967,135.484940 
	C138.063034,139.706421 127.980194,138.552368 117.855804,136.490585 
	C120.446144,134.759659 123.037605,133.385315 125.629066,132.010971 
	C128.139572,135.183792 128.950653,132.801697 130.005234,130.360840 
z"/>
<path fill="#BA3044" opacity="1.000000" stroke="none" 
	d="
M114.895172,41.672050 
	C104.057114,46.295799 93.221474,50.589905 81.984802,54.871841 
	C80.918549,53.939289 80.253319,53.018906 79.359108,51.642487 
	C80.943741,50.118107 82.735764,49.010910 84.575172,47.988987 
	C89.373001,45.323463 94.191582,42.695290 99.001884,40.052223 
	C100.798790,39.435024 102.595688,38.817822 105.111984,38.102196 
	C107.275566,37.647869 108.719749,37.291965 110.163940,36.936058 
	C111.741829,38.404839 113.319717,39.873623 114.895172,41.672050 
z"/>
<path fill="#6C315C" opacity="1.000000" stroke="none" 
	d="
M5.474099,147.641815 
	C6.172049,147.781860 6.819296,148.656296 7.047912,148.557922 
	C16.322649,144.566635 25.559631,140.487610 34.957565,136.092285 
	C36.525513,136.827484 37.937328,137.890167 39.677864,139.095795 
	C38.927238,140.470520 38.087498,142.240509 36.729027,142.845276 
	C28.863272,146.346924 20.849937,149.515854 12.955995,152.956711 
	C11.778358,153.470016 10.967317,154.824387 9.922377,156.197906 
	C4.513502,155.442505 3.815080,154.132584 5.474099,147.641815 
z"/>
<path fill="#572D5F" opacity="1.000000" stroke="none" 
	d="
M95.839005,129.444458 
	C106.433609,124.781837 117.273697,120.398872 128.493011,116.008278 
	C128.500748,118.495468 128.129242,120.990288 127.124832,123.770416 
	C121.475433,125.946762 116.390091,127.679306 111.478958,129.812866 
	C109.706703,130.582779 108.352524,132.315048 106.807556,133.608170 
	C103.233200,132.313492 99.658852,131.018799 95.839005,129.444458 
z"/>
<path fill="#402E66" opacity="1.000000" stroke="none" 
	d="
M87.216957,160.562042 
	C78.819283,164.204987 70.239357,167.557816 61.280907,170.937714 
	C61.770424,167.496857 62.638481,164.028931 64.120087,160.271423 
	C69.901093,157.951447 75.068550,155.921051 80.236000,153.890640 
	C82.502235,156.017746 84.768478,158.144852 87.216957,160.562042 
z"/>
<path fill="#AE364E" opacity="1.000000" stroke="none" 
	d="
M38.556068,77.800972 
	C40.146843,82.279137 41.737614,86.757309 43.523857,91.785744 
	C38.125271,91.785744 32.762131,92.137421 27.467705,91.685005 
	C22.362801,91.248787 22.281466,87.511124 23.994457,83.259521 
	C29.278440,81.246864 33.917255,79.523918 38.556068,77.800972 
z"/>
<path fill="#A4344F" opacity="1.000000" stroke="none" 
	d="
M44.078053,82.370560 
	C52.287991,78.709160 60.491413,75.381622 68.734627,72.155754 
	C70.223740,71.573013 71.876274,71.407890 73.870972,71.079369 
	C66.299232,77.992638 58.327755,84.897629 50.275936,91.707634 
	C49.795162,92.114258 48.671162,91.760368 47.880707,91.760368 
	C46.604504,88.727127 45.344837,85.733192 44.078053,82.370560 
z"/>
<path fill="#4D2F63" opacity="1.000000" stroke="none" 
	d="
M110.655334,139.086456 
	C107.921616,141.134003 104.973770,143.322876 101.720970,144.871033 
	C96.356094,147.424423 90.794151,149.563736 84.960114,152.020721 
	C83.170738,150.319046 81.736511,148.474243 80.593689,146.265869 
	C85.171036,144.133102 89.564194,142.578461 93.701263,140.511322 
	C96.049736,139.337906 97.978813,137.325104 100.096764,135.690323 
	C103.499237,136.773514 106.901711,137.856705 110.655334,139.086456 
z"/>
<path fill="#7B2F56" opacity="1.000000" stroke="none" 
	d="
M134.228500,88.993210 
	C133.957809,86.328697 133.687119,83.664192 133.862244,80.526413 
	C141.814438,77.370255 149.320770,74.687363 156.827118,72.004478 
	C156.381866,75.124329 155.936600,78.244179 154.869781,81.724884 
	C147.574982,84.388229 140.901749,86.690720 134.228500,88.993210 
z"/>
<path fill="#37306A" opacity="1.000000" stroke="none" 
	d="
M122.119225,146.366959 
	C123.334763,144.886581 124.633560,143.786423 125.967201,142.353683 
	C134.246826,142.023804 142.537781,142.381271 150.154221,138.231522 
	C150.637939,137.967972 151.623932,138.626266 152.690674,139.049530 
	C152.369873,140.144302 151.930984,141.512894 151.069412,141.874588 
	C141.314545,145.969666 131.499161,149.921066 121.682091,153.866394 
	C121.101906,154.099533 120.368546,153.951553 119.298912,153.969620 
	C119.995064,151.554596 121.098778,149.150894 122.119225,146.366959 
z"/>
<path fill="#7B2F56" opacity="1.000000" stroke="none" 
	d="
M160.941132,70.437729 
	C166.949722,67.687546 172.892792,65.344139 178.867859,63.085438 
	C180.222473,62.573368 181.688217,62.355312 183.492767,62.001488 
	C183.057510,65.128952 182.232300,68.256851 180.805023,71.692894 
	C178.633316,72.411964 177.046844,72.768089 175.497147,73.243935 
	C170.525116,74.770622 165.566711,76.341568 160.603043,77.895447 
	C160.697754,75.555367 160.792465,73.215279 160.941132,70.437729 
z"/>
<path fill="#C33345" opacity="1.000000" stroke="none" 
	d="
M98.662193,39.951538 
	C94.191582,42.695290 89.373001,45.323463 84.575172,47.988987 
	C82.735764,49.010910 80.943741,50.118107 79.067688,51.525459 
	C74.636612,51.577488 70.267967,51.290504 65.449463,50.942162 
	C66.776520,49.600807 68.398354,47.967995 70.359070,47.106148 
	C76.549110,44.385265 82.881645,41.990231 89.118385,39.372257 
	C90.133148,38.946297 90.941383,38.028347 92.004135,36.996201 
	C94.216301,37.720016 96.269402,38.785435 98.662193,39.951538 
z"/>
<path fill="#BA3044" opacity="1.000000" stroke="none" 
	d="
M77.583893,55.935444 
	C77.288826,56.905533 76.742729,58.124527 75.842506,58.504482 
	C65.911446,62.696083 55.934635,66.780273 45.937943,70.813560 
	C45.064785,71.165848 43.962990,70.951424 42.568176,71.000671 
	C42.674866,69.189262 43.180775,67.377403 44.304096,65.282974 
	C51.624630,62.426357 58.342075,59.887966 65.003563,57.210346 
	C65.534294,56.997013 65.678009,55.820835 66.001572,55.092110 
	C69.723846,55.326309 73.446121,55.560509 77.583893,55.935444 
z"/>
<path fill="#723059" opacity="1.000000" stroke="none" 
	d="
M160.417938,78.190399 
	C165.566711,76.341568 170.525116,74.770622 175.497147,73.243935 
	C177.046844,72.768089 178.633316,72.411964 180.600555,72.000404 
	C180.295929,74.853493 179.593704,77.707214 178.319855,80.846703 
	C173.330994,82.832726 168.972519,84.717560 164.470200,86.150429 
	C162.415039,86.804489 160.076172,86.567062 157.865997,86.733978 
	C158.654938,83.984444 159.443893,81.234901 160.417938,78.190399 
z"/>
<path fill="#862F53" opacity="1.000000" stroke="none" 
	d="
M156.878632,71.629745 
	C149.320770,74.687363 141.814438,77.370255 133.880035,80.080879 
	C133.064880,77.984879 132.677795,75.861145 132.685394,73.369385 
	C140.071030,69.957344 147.061966,66.913330 154.052917,63.869312 
	C155.011993,66.331215 155.971085,68.793121 156.878632,71.629745 
z"/>
<path fill="#913050" opacity="1.000000" stroke="none" 
	d="
M153.973618,63.550903 
	C147.061966,66.913330 140.071030,69.957344 132.700531,73.003883 
	C131.834244,70.604568 131.347504,68.202721 131.334564,65.398560 
	C137.338043,62.946693 142.867706,60.897156 148.397354,58.847622 
	C150.229675,60.309246 152.061996,61.770874 153.973618,63.550903 
z"/>
<path fill="#7B2F56" opacity="1.000000" stroke="none" 
	d="
M60.303623,111.285446 
	C61.339024,112.164520 62.253384,113.285667 63.433334,113.875648 
	C66.529503,115.423752 66.948486,117.672729 64.992836,120.801773 
	C59.649288,122.238510 54.509235,122.608719 51.728611,127.546822 
	C48.507088,124.950691 45.285564,122.354561 42.527676,119.381424 
	C48.762081,116.431427 54.532852,113.858437 60.303623,111.285446 
z"/>
<path fill="#873558" opacity="1.000000" stroke="none" 
	d="
M60.125011,111.027695 
	C54.532852,113.858437 48.762081,116.431427 42.608437,119.007996 
	C42.703461,116.589195 42.945412,114.090302 43.701729,111.758224 
	C46.405067,103.422607 51.623425,102.313484 57.855099,108.630646 
	C58.555416,109.340576 59.249454,110.056694 60.125011,111.027695 
z"/>
<path fill="#A93B54" opacity="1.000000" stroke="none" 
	d="
M157.564484,40.269833 
	C154.552322,42.565910 151.048187,44.718830 147.617920,46.983673 
	C145.690735,48.256115 143.885635,49.713497 142.019470,51.446854 
	C139.730362,51.531162 137.447327,51.256176 135.185532,50.983746 
	C135.725372,41.645466 137.281357,40.132416 146.113983,40.134556 
	C149.777115,40.135445 153.440262,40.159801 157.564484,40.269833 
z"/>
<path fill="#552D5F" opacity="1.000000" stroke="none" 
	d="
M99.853836,135.447876 
	C97.978813,137.325104 96.049736,139.337906 93.701263,140.511322 
	C89.564194,142.578461 85.171036,144.133102 80.531143,145.948639 
	C79.077797,143.926132 77.978394,141.857315 77.184082,139.290497 
	C82.017075,136.463074 86.544968,134.133667 91.072868,131.804245 
	C93.918877,132.937973 96.764893,134.071701 99.853836,135.447876 
z"/>
<path fill="#B83449" opacity="1.000000" stroke="none" 
	d="
M114.936806,35.390495 
	C118.199608,33.885666 121.601990,32.655529 125.030037,31.501682 
	C126.729622,30.929619 128.476440,30.497858 130.596313,30.002003 
	C129.309280,36.527409 127.627831,43.053436 125.858681,49.919811 
	C122.103149,44.960941 118.595062,40.328800 114.936806,35.390495 
z"/>
<path fill="#973756" opacity="1.000000" stroke="none" 
	d="
M37.562691,105.276566 
	C35.371941,107.076164 32.882401,109.148499 30.032314,110.399330 
	C25.233036,112.505630 20.204889,114.090446 14.847893,115.843414 
	C14.868656,114.038651 15.391169,112.300369 15.744716,110.528366 
	C16.518227,106.651474 18.844894,105.003990 22.759356,105.114204 
	C27.536999,105.248718 32.320713,105.167732 37.562691,105.276566 
z"/>
<path fill="#4D2F63" opacity="1.000000" stroke="none" 
	d="
M80.128403,153.558105 
	C75.068550,155.921051 69.901093,157.951447 64.348015,159.984344 
	C65.110298,155.499512 66.258202,151.012192 68.025620,146.236023 
	C70.698074,145.638550 72.751022,145.329910 74.803970,145.021286 
	C76.542908,147.756058 78.281853,150.490814 80.128403,153.558105 
z"/>
<path fill="#BA3044" opacity="1.000000" stroke="none" 
	d="
M38.530769,77.360466 
	C33.917255,79.523918 29.278440,81.246864 24.246822,82.960144 
	C24.898426,78.878883 25.942837,74.807274 27.518089,70.369202 
	C31.548405,69.374039 35.047882,68.745338 38.547356,68.116646 
	C38.533394,71.051086 38.519432,73.985519 38.530769,77.360466 
z"/>
<path fill="#6E3560" opacity="1.000000" stroke="none" 
	d="
M157.591217,86.950638 
	C160.076172,86.567062 162.415039,86.804489 164.470200,86.150429 
	C168.972519,84.717560 173.330994,82.832726 178.158783,81.159515 
	C178.081512,83.102478 177.541183,85.006866 177.117355,86.936844 
	C176.358566,90.392220 174.170990,91.888084 170.728928,91.866287 
	C165.789169,91.835014 160.849060,91.858315 155.264801,91.858315 
	C156.060974,90.037895 156.688705,88.602592 157.591217,86.950638 
z"/>
<path fill="#5F2D5C" opacity="1.000000" stroke="none" 
	d="
M90.863464,131.531021 
	C86.544968,134.133667 82.017075,136.463074 77.141586,138.936935 
	C75.113640,137.035431 73.245735,135.106644 71.854675,132.879959 
	C71.368118,132.101135 72.055656,130.588806 72.794273,129.165314 
	C75.608871,127.889511 77.836235,126.859825 80.063599,125.830132 
	C83.593758,127.639351 87.123917,129.448578 90.863464,131.531021 
z"/>
<path fill="#4D2F63" opacity="1.000000" stroke="none" 
	d="
M107.115356,133.771332 
	C108.352524,132.315048 109.706703,130.582779 111.478958,129.812866 
	C116.390091,127.679306 121.475433,125.946762 126.894188,124.080154 
	C126.813423,126.467728 126.330399,128.830872 125.738220,131.602509 
	C123.037605,133.385315 120.446144,134.759659 117.474693,136.301331 
	C113.870857,135.623901 110.647011,134.779190 107.115356,133.771332 
z"/>
<path fill="#78355D" opacity="1.000000" stroke="none" 
	d="
M134.170380,89.403877 
	C140.901749,86.690720 147.574982,84.388229 154.622055,82.042664 
	C153.227325,85.247314 152.076828,90.535118 149.555740,91.298904 
	C144.947601,92.694984 139.528214,91.425842 134.450729,91.191452 
	C134.317001,91.185272 134.224167,90.293381 134.170380,89.403877 
z"/>
<path fill="#723059" opacity="1.000000" stroke="none" 
	d="
M51.741119,127.936020 
	C54.509235,122.608719 59.649288,122.238510 64.760033,121.041389 
	C64.396698,124.207878 63.627342,127.358467 62.668835,130.804657 
	C59.073681,132.033371 55.667679,132.966492 51.839424,133.851303 
	C51.529324,131.977066 51.641476,130.151138 51.741119,127.936020 
z"/>
<path fill="#973756" opacity="1.000000" stroke="none" 
	d="
M148.162369,58.553009 
	C142.867706,60.897156 137.338043,62.946693 131.411926,64.998795 
	C131.678650,61.834949 132.341858,58.668533 133.258331,54.293011 
	C138.390457,55.680344 143.158920,56.969372 148.162369,58.553009 
z"/>
<path fill="#463066" opacity="1.000000" stroke="none" 
	d="
M151.658691,127.864426 
	C155.836777,124.274361 159.841827,124.469490 160.928757,128.290665 
	C161.424194,130.032425 161.012268,132.835449 159.851440,134.017776 
	C158.705032,135.185455 155.819427,135.689026 154.186188,135.108063 
	C151.206024,134.048004 150.290192,131.329086 151.658691,127.864426 
z"/>
<path fill="#78355D" opacity="1.000000" stroke="none" 
	d="
M45.866470,126.135895 
	C48.532902,128.884888 49.158760,131.871994 46.365047,134.073318 
	C44.929989,135.204086 41.554909,135.699783 40.314655,134.782104 
	C38.809540,133.668442 37.621128,130.496384 38.094055,128.684219 
	C39.035809,125.075562 42.071095,124.244392 45.866470,126.135895 
z"/>
<path fill="#CE3D4B" opacity="1.000000" stroke="none" 
	d="
M96.412155,26.399887 
	C98.983391,26.461037 101.520836,26.241112 103.420624,27.237265 
	C104.413170,27.757702 104.986862,30.679562 104.477623,32.040966 
	C103.889542,33.613125 102.041870,35.432594 100.479668,35.719112 
	C98.928581,36.003593 95.869461,34.838371 95.570107,33.738026 
	C94.981880,31.575836 95.848862,29.017744 96.412155,26.399887 
z"/>
<path fill="#C33345" opacity="1.000000" stroke="none" 
	d="
M38.710670,67.829041 
	C35.047882,68.745338 31.548405,69.374039 27.657383,70.005890 
	C27.830088,67.899452 28.394339,65.789856 29.099178,63.338932 
	C33.609306,61.676270 37.978848,60.354942 42.744987,59.043537 
	C41.719051,61.882786 40.296516,64.712105 38.710670,67.829041 
z"/>
<path fill="#C33345" opacity="1.000000" stroke="none" 
	d="
M65.571121,55.026161 
	C65.678009,55.820835 65.534294,56.997013 65.003563,57.210346 
	C58.342075,59.887966 51.624630,62.426357 44.533722,65.001961 
	C48.634918,56.410339 56.887486,55.684635 65.571121,55.026161 
z"/>
<path fill="#873558" opacity="1.000000" stroke="none" 
	d="
M129.993927,85.079697 
	C130.015671,87.476059 130.015671,89.426628 130.015671,91.368301 
	C123.034439,91.634041 124.002907,85.700821 128.569031,75.963623 
	C129.036743,78.853714 129.504456,81.743813 129.993927,85.079697 
z"/>
<path fill="#7F3E63" opacity="1.000000" stroke="none" 
	d="
M87.620018,105.264877 
	C86.397064,109.882980 82.225441,110.065163 78.054932,110.933563 
	C78.154465,104.552155 82.784035,105.034935 87.620018,105.264877 
z"/>
<path fill="#683D69" opacity="1.000000" stroke="none" 
	d="
M74.745407,144.675995 
	C72.751022,145.329910 70.698074,145.638550 68.249214,145.942566 
	C68.670952,142.429474 69.488602,138.921005 70.408714,134.972900 
	C71.951782,138.348145 73.319313,141.339417 74.745407,144.675995 
z"/>
<path fill="#7F3E63" opacity="1.000000" stroke="none" 
	d="
M63.219460,105.153915 
	C67.032799,105.884483 68.653755,107.855049 67.870872,112.392876 
	C65.100281,110.059624 62.767441,108.095024 59.578651,105.409584 
	C61.445118,105.253563 62.151546,105.194511 63.219460,105.153915 
z"/>
<path fill="#6E3560" opacity="1.000000" stroke="none" 
	d="
M79.890594,125.550087 
	C77.836235,126.859825 75.608871,127.889511 72.982178,128.881012 
	C73.065048,126.785431 73.547256,124.728050 74.180176,122.027618 
	C76.240875,123.234253 77.979233,124.252144 79.890594,125.550087 
z"/>
<path fill="#683D69" opacity="1.000000" stroke="none" 
	d="
M141.602249,105.265213 
	C139.606979,106.904472 137.176712,108.443146 134.374725,109.992767 
	C134.003006,108.561371 134.003006,107.119041 134.003006,105.164635 
	C136.656723,105.164635 138.912003,105.164635 141.602249,105.265213 
z"/>
<path fill="#C33345" opacity="1.000000" stroke="none" 
	d="
M110.004639,36.665249 
	C108.719749,37.291965 107.275566,37.647869 105.457260,38.016502 
	C106.400772,36.698471 107.257545,34.025181 110.004639,36.665249 
z"/>
<path fill="#973756" opacity="1.000000" stroke="none" 
	d="
M41.276390,106.969559 
	C41.027424,106.742462 41.000172,106.351906 40.972374,105.667725 
	C41.147255,105.851433 41.322674,106.328758 41.276390,106.969559 
z"/>
<path fill="#8C3355" opacity="1.000000" stroke="none" 
	d="
M57.652512,90.762032 
	C57.882206,90.793320 57.909237,90.957932 57.963692,91.371239 
	C57.810688,91.378410 57.630268,91.136887 57.652512,90.762032 
z"/>
</svg>